<?xml version="1.0" encoding="UTF-8" standalone="no"?>
<!-- Created with Inkscape (http://www.inkscape.org/) -->

<svg
   xmlns:dc="http://purl.org/dc/elements/1.1/"
   xmlns:cc="http://creativecommons.org/ns#"
   xmlns:rdf="http://www.w3.org/1999/02/22-rdf-syntax-ns#"
   xmlns:svg="http://www.w3.org/2000/svg"
   xmlns="http://www.w3.org/2000/svg"
   xmlns:sodipodi="http://sodipodi.sourceforge.net/DTD/sodipodi-0.dtd"
   xmlns:inkscape="http://www.inkscape.org/namespaces/inkscape"
   width="210mm"
   height="297mm"
   viewBox="0 0 210 297"
   version="1.1"
   id="svg8"
   inkscape:version="0.92.0 r15299"
   sodipodi:docname="Logo.svg">
  <defs
     id="defs2" />
  <sodipodi:namedview
     id="base"
     pagecolor="#ffffff"
     bordercolor="#666666"
     borderopacity="1.0"
     inkscape:pageopacity="0.0"
     inkscape:pageshadow="2"
     inkscape:zoom="0.98994949"
     inkscape:cx="47.98718"
     inkscape:cy="593.14949"
     inkscape:document-units="mm"
     inkscape:current-layer="layer1"
     showgrid="false"
     showguides="true"
     inkscape:guide-bbox="true"
     inkscape:window-width="2194"
     inkscape:window-height="1182"
     inkscape:window-x="1672"
     inkscape:window-y="-8"
     inkscape:window-maximized="1">
    <sodipodi:guide
       position="43.832202,223.97187"
       orientation="0,1"
       id="guide4628"
       inkscape:locked="false" />
  </sodipodi:namedview>
  <metadata
     id="metadata5">
    <rdf:RDF>
      <cc:Work
         rdf:about="">
        <dc:format>image/svg+xml</dc:format>
        <dc:type
           rdf:resource="http://purl.org/dc/dcmitype/StillImage" />
        <dc:title></dc:title>
      </cc:Work>
    </rdf:RDF>
  </metadata>
  <g
     inkscape:label="Layer 1"
     inkscape:groupmode="layer"
     id="layer1">
    <circle
       style="opacity:1;fill:#f5f5f5;fill-opacity:1;stroke:#000000;stroke-width:2;stroke-linecap:butt;stroke-linejoin:miter;stroke-miterlimit:4;stroke-dasharray:none;stroke-opacity:1;paint-order:stroke markers fill"
       id="path4485"
       cx="108.90299"
       cy="130.87947"
       r="95.25" />
    <g
       id="g4891"
       inkscape:export-xdpi="600"
       inkscape:export-ydpi="600">
      <path
         sodipodi:nodetypes="cccscsscc"
         inkscape:connector-curvature="0"
         id="path4495"
         d="m 51.473192,85.957373 c -4.607284,6.865504 -3.390839,17.025547 -0.329203,19.859067 3.061636,2.83349 2.952882,2.53469 2.952882,2.53469 l 4.038412,-1.30066 c 2.540353,-0.81814 12.487025,-2.2608 12.487025,-2.2608 l -3.11619,-3.60323 c -3.051215,-3.528073 -4.539999,-10.6141 -3.354666,-13.865416 1.185321,-3.251311 1.628767,-4.202284 1.628767,-4.202284 z"
         style="fill:#202430;fill-opacity:1;stroke:none;stroke-width:1.64327896;stroke-linecap:butt;stroke-linejoin:miter;stroke-miterlimit:4;stroke-dasharray:none;stroke-opacity:1" />
      <path
         sodipodi:nodetypes="cccscsscc"
         inkscape:connector-curvature="0"
         id="path4495-2"
         d="m 50.717745,115.4321 c -7.065782,10.52899 -5.20023,26.11051 -0.504876,30.45601 4.69535,4.34549 4.528562,3.88725 4.528562,3.88725 l 6.193352,-1.99473 c 3.895905,-1.2547 19.150203,-3.46718 19.150203,-3.46718 l -4.779011,-5.52592 c -4.679365,-5.4107 -6.962582,-16.27789 -5.144749,-21.26414 1.817834,-4.98624 2.497895,-6.44465 2.497895,-6.44465 z"
         style="fill:#202430;fill-opacity:1;stroke:none;stroke-width:2.5201478;stroke-linecap:butt;stroke-linejoin:miter;stroke-miterlimit:4;stroke-dasharray:none;stroke-opacity:1" />
      <path
         sodipodi:nodetypes="cccscsscc"
         inkscape:connector-curvature="0"
         id="path4495-2-8"
         d="m 55.46553,154.84404 c -10.025506,14.93938 -7.378509,37.04772 -0.716359,43.21348 6.662148,6.16573 6.425495,5.51553 6.425495,5.51553 l 8.787632,-2.83028 c 5.527828,-1.78026 27.42666,-9.47872 27.42666,-9.47872 l -7.035644,-3.28143 c -9.198626,-4.29023 -9.879076,-23.09638 -7.299793,-30.17127 2.579286,-7.07489 3.544226,-9.14421 3.544226,-9.14421 z"
         style="fill:#202430;fill-opacity:1;stroke:none;stroke-width:3.57579112;stroke-linecap:butt;stroke-linejoin:miter;stroke-miterlimit:4;stroke-dasharray:none;stroke-opacity:1" />
      <path
         sodipodi:nodetypes="cccscsscc"
         inkscape:connector-curvature="0"
         id="path4495-1"
         d="m 95.490537,73.028131 c -4.607284,6.865504 -3.390838,17.025542 -0.329202,19.859063 3.061636,2.83349 2.952881,2.534697 2.952881,2.534697 l 4.038414,-1.300663 c 2.54035,-0.818138 12.48702,-2.260805 12.48702,-2.260805 L 111.52346,88.2572 c -3.05121,-3.528074 -4.54,-10.614102 -3.35466,-13.865417 1.18532,-3.251312 1.62876,-4.202284 1.62876,-4.202284 z"
         style="fill:#202430;fill-opacity:1;stroke:none;stroke-width:1.64327896;stroke-linecap:butt;stroke-linejoin:miter;stroke-miterlimit:4;stroke-dasharray:none;stroke-opacity:1" />
      <path
         sodipodi:nodetypes="cccscsscc"
         inkscape:connector-curvature="0"
         id="path4495-2-6"
         d="m 94.73509,102.50286 c -7.065782,10.52898 -5.20023,26.11051 -0.504876,30.45601 4.69535,4.34548 4.528562,3.88724 4.528562,3.88724 l 6.193354,-1.99472 c 3.8959,-1.2547 19.1502,-3.46719 19.1502,-3.46719 l -4.77901,-5.52592 c -4.67937,-5.41069 -6.96258,-16.27789 -5.14475,-21.26413 1.81784,-4.986243 2.4979,-6.444656 2.4979,-6.444656 z"
         style="fill:#202430;fill-opacity:1;stroke:none;stroke-width:2.5201478;stroke-linecap:butt;stroke-linejoin:miter;stroke-miterlimit:4;stroke-dasharray:none;stroke-opacity:1" />
      <path
         sodipodi:nodetypes="cccscsscc"
         inkscape:connector-curvature="0"
         id="path4495-2-8-1"
         d="m 99.482875,141.9148 c -10.025505,14.93938 -7.378508,37.04772 -0.716359,43.21347 6.662144,6.16574 6.425494,5.51554 6.425494,5.51554 l 8.78763,-2.83029 c 5.52783,-1.78025 27.42666,-9.47871 27.42666,-9.47871 l -7.03564,-3.28143 c -9.19863,-4.29023 -9.87908,-23.09638 -7.29979,-30.17128 2.57928,-7.07488 3.54422,-9.1442 3.54422,-9.1442 z"
         style="fill:#202430;fill-opacity:1;stroke:none;stroke-width:3.57579112;stroke-linecap:butt;stroke-linejoin:miter;stroke-miterlimit:4;stroke-dasharray:none;stroke-opacity:1" />
      <path
         sodipodi:nodetypes="cccscsscc"
         inkscape:connector-curvature="0"
         id="path4495-9"
         d="m 141.83284,60.724982 c -4.60728,6.865504 -3.39084,17.025542 -0.3292,19.859063 3.06163,2.83349 2.95288,2.534697 2.95288,2.534697 l 4.03841,-1.300664 c 2.54035,-0.818137 12.48703,-2.260804 12.48703,-2.260804 l -3.11619,-3.603223 c -3.05122,-3.528075 -4.54,-10.614102 -3.35467,-13.865418 1.18532,-3.251311 1.62877,-4.202284 1.62877,-4.202284 z"
         style="fill:#202430;fill-opacity:1;stroke:none;stroke-width:1.64327896;stroke-linecap:butt;stroke-linejoin:miter;stroke-miterlimit:4;stroke-dasharray:none;stroke-opacity:1" />
      <path
         sodipodi:nodetypes="cccscsscc"
         inkscape:connector-curvature="0"
         id="path4495-2-4"
         d="m 141.07739,90.199713 c -7.06578,10.528977 -5.20023,26.110507 -0.50487,30.456007 4.69535,4.34549 4.52856,3.88724 4.52856,3.88724 l 6.19335,-1.99472 c 3.89591,-1.2547 19.15021,-3.46719 19.15021,-3.46719 l -4.77902,-5.52592 c -4.67936,-5.41069 -6.96258,-16.277885 -5.14474,-21.264133 1.81783,-4.986238 2.49789,-6.444651 2.49789,-6.444651 z"
         style="fill:#202430;fill-opacity:1;stroke:none;stroke-width:2.5201478;stroke-linecap:butt;stroke-linejoin:miter;stroke-miterlimit:4;stroke-dasharray:none;stroke-opacity:1" />
      <path
         sodipodi:nodetypes="cccscsscc"
         inkscape:connector-curvature="0"
         id="path4495-2-8-6"
         d="m 145.82518,129.61165 c -10.02551,14.93938 -7.37851,37.04772 -0.71636,43.21347 6.66215,6.16574 6.42549,5.51554 6.42549,5.51554 l 8.78764,-2.83029 c 5.52783,-1.78025 27.42666,-9.47871 27.42666,-9.47871 l -7.03565,-3.28143 c -9.19862,-4.29023 -9.87907,-23.09638 -7.29979,-30.17128 2.57929,-7.07488 3.54423,-9.1442 3.54423,-9.1442 z"
         style="fill:#202430;fill-opacity:1;stroke:none;stroke-width:3.57579112;stroke-linecap:butt;stroke-linejoin:miter;stroke-miterlimit:4;stroke-dasharray:none;stroke-opacity:1" />
    </g>
  </g>
</svg>
